<mxfile host="app.diagrams.net" modified="2024-07-21T16:55:06.227Z" agent="Mozilla/5.0 (Windows NT 10.0; Win64; x64) AppleWebKit/537.36 (KHTML, like Gecko) Chrome/126.0.0.0 Safari/537.36 Edg/126.0.0.0" etag="PtGFAXx0OgfhBBiCLIOd" version="24.7.1" type="device">
  <diagram name="PÃ¡gina-1" id="OOx0ptyIZAnt5fFZQD3k">
    <mxGraphModel dx="1172" dy="669" grid="1" gridSize="10" guides="1" tooltips="1" connect="1" arrows="1" fold="1" page="1" pageScale="1" pageWidth="827" pageHeight="1169" math="0" shadow="0">
      <root>
        <mxCell id="0" />
        <mxCell id="1" parent="0" />
        <mxCell id="Ul2EZ8FBkwmZhXRYB3Ub-16" style="edgeStyle=orthogonalEdgeStyle;rounded=0;orthogonalLoop=1;jettySize=auto;html=1;exitX=0.5;exitY=1;exitDx=0;exitDy=0;entryX=0.5;entryY=0;entryDx=0;entryDy=0;" edge="1" parent="1" source="Ul2EZ8FBkwmZhXRYB3Ub-1" target="Ul2EZ8FBkwmZhXRYB3Ub-8">
          <mxGeometry relative="1" as="geometry" />
        </mxCell>
        <mxCell id="Ul2EZ8FBkwmZhXRYB3Ub-1" value="Start&lt;div&gt;&lt;br&gt;&lt;/div&gt;" style="rounded=1;whiteSpace=wrap;html=1;" vertex="1" parent="1">
          <mxGeometry x="365" y="100" width="120" height="60" as="geometry" />
        </mxCell>
        <mxCell id="Ul2EZ8FBkwmZhXRYB3Ub-6" style="edgeStyle=orthogonalEdgeStyle;rounded=0;orthogonalLoop=1;jettySize=auto;html=1;entryX=0.5;entryY=0;entryDx=0;entryDy=0;" edge="1" parent="1" source="Ul2EZ8FBkwmZhXRYB3Ub-3" target="Ul2EZ8FBkwmZhXRYB3Ub-5">
          <mxGeometry relative="1" as="geometry" />
        </mxCell>
        <mxCell id="Ul2EZ8FBkwmZhXRYB3Ub-3" value="Digit one letter&lt;div&gt;&lt;br&gt;&lt;/div&gt;" style="rounded=0;whiteSpace=wrap;html=1;" vertex="1" parent="1">
          <mxGeometry x="365" y="320" width="120" height="70" as="geometry" />
        </mxCell>
        <mxCell id="Ul2EZ8FBkwmZhXRYB3Ub-9" style="edgeStyle=orthogonalEdgeStyle;rounded=0;orthogonalLoop=1;jettySize=auto;html=1;exitX=0.5;exitY=1;exitDx=0;exitDy=0;" edge="1" parent="1" source="Ul2EZ8FBkwmZhXRYB3Ub-5">
          <mxGeometry relative="1" as="geometry">
            <mxPoint x="425" y="605" as="targetPoint" />
          </mxGeometry>
        </mxCell>
        <mxCell id="Ul2EZ8FBkwmZhXRYB3Ub-13" style="edgeStyle=orthogonalEdgeStyle;rounded=0;orthogonalLoop=1;jettySize=auto;html=1;exitX=1;exitY=0.5;exitDx=0;exitDy=0;entryX=0;entryY=0.5;entryDx=0;entryDy=0;" edge="1" parent="1" source="Ul2EZ8FBkwmZhXRYB3Ub-5" target="Ul2EZ8FBkwmZhXRYB3Ub-10">
          <mxGeometry relative="1" as="geometry" />
        </mxCell>
        <mxCell id="Ul2EZ8FBkwmZhXRYB3Ub-14" value="No&lt;div&gt;&lt;br&gt;&lt;/div&gt;" style="edgeLabel;html=1;align=center;verticalAlign=middle;resizable=0;points=[];" vertex="1" connectable="0" parent="Ul2EZ8FBkwmZhXRYB3Ub-13">
          <mxGeometry x="-0.2733" y="-2" relative="1" as="geometry">
            <mxPoint x="-104" y="-204" as="offset" />
          </mxGeometry>
        </mxCell>
        <mxCell id="Ul2EZ8FBkwmZhXRYB3Ub-5" value="belongs&amp;nbsp;&lt;div&gt;to the word?&lt;/div&gt;" style="rhombus;whiteSpace=wrap;html=1;" vertex="1" parent="1">
          <mxGeometry x="350" y="445" width="150" height="95" as="geometry" />
        </mxCell>
        <mxCell id="Ul2EZ8FBkwmZhXRYB3Ub-20" style="edgeStyle=orthogonalEdgeStyle;rounded=0;orthogonalLoop=1;jettySize=auto;html=1;entryX=0;entryY=0.5;entryDx=0;entryDy=0;" edge="1" parent="1" source="Ul2EZ8FBkwmZhXRYB3Ub-7" target="Ul2EZ8FBkwmZhXRYB3Ub-8">
          <mxGeometry relative="1" as="geometry">
            <Array as="points">
              <mxPoint x="280" y="620" />
              <mxPoint x="280" y="230" />
            </Array>
          </mxGeometry>
        </mxCell>
        <mxCell id="Ul2EZ8FBkwmZhXRYB3Ub-7" value="Write letter" style="rounded=0;whiteSpace=wrap;html=1;" vertex="1" parent="1">
          <mxGeometry x="365" y="610" width="120" height="60" as="geometry" />
        </mxCell>
        <mxCell id="Ul2EZ8FBkwmZhXRYB3Ub-17" style="edgeStyle=orthogonalEdgeStyle;rounded=0;orthogonalLoop=1;jettySize=auto;html=1;exitX=0.5;exitY=1;exitDx=0;exitDy=0;entryX=0.5;entryY=0;entryDx=0;entryDy=0;" edge="1" parent="1" source="Ul2EZ8FBkwmZhXRYB3Ub-8" target="Ul2EZ8FBkwmZhXRYB3Ub-3">
          <mxGeometry relative="1" as="geometry">
            <mxPoint x="425" y="290" as="targetPoint" />
          </mxGeometry>
        </mxCell>
        <mxCell id="Ul2EZ8FBkwmZhXRYB3Ub-22" style="edgeStyle=orthogonalEdgeStyle;rounded=0;orthogonalLoop=1;jettySize=auto;html=1;exitX=0;exitY=0;exitDx=0;exitDy=0;entryX=0;entryY=0.5;entryDx=0;entryDy=0;" edge="1" parent="1" source="Ul2EZ8FBkwmZhXRYB3Ub-8" target="Ul2EZ8FBkwmZhXRYB3Ub-24">
          <mxGeometry relative="1" as="geometry">
            <mxPoint x="120" y="780" as="targetPoint" />
            <Array as="points">
              <mxPoint x="90" y="202" />
              <mxPoint x="90" y="780" />
            </Array>
          </mxGeometry>
        </mxCell>
        <mxCell id="Ul2EZ8FBkwmZhXRYB3Ub-8" value="word discovered or hangman full ?" style="ellipse;whiteSpace=wrap;html=1;" vertex="1" parent="1">
          <mxGeometry x="360" y="190" width="130" height="80" as="geometry" />
        </mxCell>
        <mxCell id="Ul2EZ8FBkwmZhXRYB3Ub-18" style="edgeStyle=orthogonalEdgeStyle;rounded=0;orthogonalLoop=1;jettySize=auto;html=1;exitX=0.5;exitY=0;exitDx=0;exitDy=0;entryX=1;entryY=0.5;entryDx=0;entryDy=0;" edge="1" parent="1" source="Ul2EZ8FBkwmZhXRYB3Ub-10" target="Ul2EZ8FBkwmZhXRYB3Ub-8">
          <mxGeometry relative="1" as="geometry">
            <mxPoint x="700" y="230" as="targetPoint" />
          </mxGeometry>
        </mxCell>
        <mxCell id="Ul2EZ8FBkwmZhXRYB3Ub-10" value="Write piece of the&lt;div&gt;hangman&lt;/div&gt;" style="rounded=0;whiteSpace=wrap;html=1;" vertex="1" parent="1">
          <mxGeometry x="650" y="452.5" width="120" height="80" as="geometry" />
        </mxCell>
        <mxCell id="Ul2EZ8FBkwmZhXRYB3Ub-15" value="&lt;div&gt;Yes&lt;/div&gt;" style="edgeLabel;html=1;align=center;verticalAlign=middle;resizable=0;points=[];" vertex="1" connectable="0" parent="1">
          <mxGeometry x="560" y="760" as="geometry">
            <mxPoint x="-109" y="112" as="offset" />
          </mxGeometry>
        </mxCell>
        <mxCell id="Ul2EZ8FBkwmZhXRYB3Ub-23" value="No&lt;div&gt;&lt;br&gt;&lt;/div&gt;" style="edgeLabel;html=1;align=center;verticalAlign=middle;resizable=0;points=[];" vertex="1" connectable="0" parent="1">
          <mxGeometry x="574.1176470588236" y="482.5" as="geometry">
            <mxPoint x="3" y="-22" as="offset" />
          </mxGeometry>
        </mxCell>
        <mxCell id="Ul2EZ8FBkwmZhXRYB3Ub-27" style="edgeStyle=orthogonalEdgeStyle;rounded=0;orthogonalLoop=1;jettySize=auto;html=1;entryX=0.5;entryY=0;entryDx=0;entryDy=0;" edge="1" parent="1" source="Ul2EZ8FBkwmZhXRYB3Ub-24" target="Ul2EZ8FBkwmZhXRYB3Ub-25">
          <mxGeometry relative="1" as="geometry" />
        </mxCell>
        <mxCell id="Ul2EZ8FBkwmZhXRYB3Ub-28" style="edgeStyle=orthogonalEdgeStyle;rounded=0;orthogonalLoop=1;jettySize=auto;html=1;" edge="1" parent="1" source="Ul2EZ8FBkwmZhXRYB3Ub-24" target="Ul2EZ8FBkwmZhXRYB3Ub-26">
          <mxGeometry relative="1" as="geometry" />
        </mxCell>
        <mxCell id="Ul2EZ8FBkwmZhXRYB3Ub-24" value="Word discovered?" style="rhombus;whiteSpace=wrap;html=1;" vertex="1" parent="1">
          <mxGeometry x="365" y="730" width="130" height="100" as="geometry" />
        </mxCell>
        <mxCell id="Ul2EZ8FBkwmZhXRYB3Ub-25" value="You won&lt;div&gt;&lt;br&gt;&lt;/div&gt;" style="rounded=0;whiteSpace=wrap;html=1;" vertex="1" parent="1">
          <mxGeometry x="370" y="910" width="120" height="60" as="geometry" />
        </mxCell>
        <mxCell id="Ul2EZ8FBkwmZhXRYB3Ub-26" value="You lost" style="rounded=0;whiteSpace=wrap;html=1;" vertex="1" parent="1">
          <mxGeometry x="600" y="750" width="120" height="60" as="geometry" />
        </mxCell>
        <mxCell id="Ul2EZ8FBkwmZhXRYB3Ub-29" value="No&lt;div&gt;&lt;br&gt;&lt;/div&gt;" style="edgeLabel;html=1;align=center;verticalAlign=middle;resizable=0;points=[];" vertex="1" connectable="0" parent="1">
          <mxGeometry x="529.9976470588236" y="780" as="geometry">
            <mxPoint x="3" y="-22" as="offset" />
          </mxGeometry>
        </mxCell>
        <mxCell id="Ul2EZ8FBkwmZhXRYB3Ub-30" value="&lt;div&gt;Yes&lt;/div&gt;" style="edgeLabel;html=1;align=center;verticalAlign=middle;resizable=0;points=[];" vertex="1" connectable="0" parent="1">
          <mxGeometry x="390" y="80" as="geometry">
            <mxPoint x="-109" y="112" as="offset" />
          </mxGeometry>
        </mxCell>
        <mxCell id="Ul2EZ8FBkwmZhXRYB3Ub-31" value="&lt;div&gt;Yes&lt;/div&gt;" style="edgeLabel;html=1;align=center;verticalAlign=middle;resizable=0;points=[];" vertex="1" connectable="0" parent="1">
          <mxGeometry x="560" y="452.5" as="geometry">
            <mxPoint x="-109" y="112" as="offset" />
          </mxGeometry>
        </mxCell>
      </root>
    </mxGraphModel>
  </diagram>
</mxfile>
